 <svg version="1.0" xmlns="http://www.w3.org/2000/svg" width="700.000000pt" height="700.000000pt" viewBox="0 0 700.000000 700.000000" preserveAspectRatio="xMidYMid meet">
<g transform="translate(0.000000,700.000000) scale(0.100000,-0.100000)" fill="#000000" stroke="none">
<path d="M2320 4140 c-94 -20 -204 -87 -377 -232 -45 -37 -84 -68 -87 -68 -3
0 -7 62 -8 138 l-3 137 -181 3 c-171 2 -182 1 -207 -19 -33 -25 -36 -68 -6
-95 18 -16 40 -20 145 -22 l124 -4 0 -479 0 -479 -154 0 c-140 0 -156 -2 -180
-21 -32 -25 -33 -59 -3 -87 23 -22 24 -22 525 -22 489 0 503 1 522 20 25 25
26 72 2 93 -16 15 -55 17 -298 19 l-279 3 -3 300 c-1 165 0 309 2 321 5 20
154 151 281 247 120 90 241 133 319 113 15 -4 55 -31 91 -61 35 -30 71 -55 78
-55 8 0 26 9 41 21 42 33 35 69 -25 128 -89 88 -205 124 -319 101z"></path>
<path d="M2946 4095 c-32 -29 -33 -46 -3 -80 19 -23 32 -27 100 -32 57 -4 82
-11 89 -22 5 -9 114 -252 242 -541 l231 -525 105 0 c101 0 105 1 117 25 7 14
79 176 159 360 80 184 181 417 225 516 l80 181 74 5 c89 6 125 25 125 68 0 19
-9 35 -26 49 -25 20 -39 21 -279 21 -240 0 -254 -1 -279 -21 -45 -36 -29 -92
32 -109 20 -5 74 -10 120 -10 46 0 82 -4 82 -10 0 -5 -45 -112 -99 -237 -55
-125 -146 -336 -203 -468 -119 -274 -123 -279 -171 -185 -45 89 -387 871 -387
885 0 9 29 14 104 17 85 3 108 7 125 22 30 27 27 70 -5 95 -25 20 -39 21 -279
21 l-252 0 -27 -25z"></path>
<path d="M5325 3226 c-38 -17 -90 -72 -104 -109 -15 -39 -14 -111 2 -150 19
-45 89 -105 131 -113 20 -3 67 -4 106 -2 59 3 74 8 106 34 21 17 46 42 57 56
22 30 33 100 23 153 -8 43 -68 113 -113 132 -41 17 -169 16 -208 -1z"></path>
</g>
</svg>